<svg
    viewBox="0 0 236 19"
    fill="none"
    xmlns="http://www.w3.org/2000/svg"
    className="logo fade-in"
    style="opacity: 1; visibility: inherit;"
>
    <path
        d="M31.464 18.776V.224h5.675l4.384 9.134 1.762 4.348h.31l1.702-4.348L49.542.224h5.699v18.552h-4.19V9.358l.138-2.908h-.304L49.79 9.358l-3.912 8.306h-5.08L36.88 9.359 35.79 6.45h-.308l.166 2.908v9.413h-4.185v.005ZM70.758 18.776v-3.544H58.88v-2.825L70.089.224h4.863v11.269h2.852v3.735h-2.852v3.543h-4.194v.005Zm0-7.283V5.015h-.31l-5.726 6.176v.306h6.036v-.004ZM18.756 8.074l.005 10.679h-4.434l-.01-10.41-.212-.215-10.769 10.67L0 15.504 10.774 4.827l-.221-.215-10.516-.01V.202h10.788l7.931 7.873Z"
        fill="#fff"
    ></path>
    <path
        d="M88.938 18.726 80.738.274h2.335l7.198 16.472h.138L97.584.274h2.303l-8.2 18.452h-2.75ZM102.872 18.726V.274h14.147v1.793h-12.177v6.496h11.757v1.764h-11.757v6.611h12.177v1.792h-14.147v-.004ZM120.711 18.726V.274h2.164l9.754 12.531 2.252 3.086h.166l-.055-3.03V.273h1.97v18.452h-2.164l-9.699-12.394-2.335-3.113h-.138l.055 3.085v12.422h-1.97ZM147.995 18.726V2.062h-7.674V.274h17.294v1.793h-7.646V18.73h-1.974v-.004ZM160.85 11.095V.275h1.97v10.738c0 4.215 2.081 6.058 6.418 6.058s6.418-1.847 6.418-6.058V.274h1.975v10.822c0 5.07-3.225 7.904-8.397 7.904-5.164 0-8.384-2.834-8.384-7.905ZM182.157 18.726V.274h9.118c3.894 0 6.529 1.953 6.529 5.345 0 3.113-2.303 5.042-5.754 5.124v.138c1.223.329 1.915 1.129 2.556 2.203l3.502 5.646h-2.279l-3.304-5.344c-.95-1.545-1.924-2.204-4.392-2.204h-4.006v7.548h-1.97v-.004Zm1.97-9.116h7.115c2.944 0 4.504-1.161 4.504-3.776 0-2.615-1.56-3.772-4.504-3.772h-7.115V9.61ZM202.178 18.726V.274h14.147v1.793h-12.177v6.496h11.757v1.764h-11.757v6.611h12.177v1.792h-14.147v-.004ZM219.671 12.887v-.164h1.998v.361c0 2.643 1.67 4.073 6.031 4.073 3.723 0 5.421-1.019 5.421-3.108 0-2.067-1.25-2.807-3.973-3.36l-3.949-.746c-3.027-.58-5.45-1.847-5.45-4.905 0-2.5 2.164-5.038 7.503-5.038 5.255 0 7.59 2.752 7.59 6.112v.165h-1.998v-.33c0-2.674-1.67-4.105-5.73-4.105-3.696 0-5.367 1.047-5.367 3.054 0 2.094 1.228 2.725 3.978 3.306l3.917.772c3.336.636 5.477 2.035 5.477 4.901 0 2.647-2.247 5.125-7.419 5.125-5.468 0-8.029-2.588-8.029-6.113Z"
        fill="#9FACAB"
    ></path>
</svg>